<mxfile host="app.diagrams.net" modified="2021-10-20T13:21:53.355Z" agent="5.0 (X11)" etag="R0E0hqKKABV1V7-daNl9" version="15.5.6" type="github">
  <diagram name="Cliente" id="0783ab3e-0a74-02c8-0abd-f7b4e66b4bec">
    <mxGraphModel dx="1877" dy="494" grid="1" gridSize="10" guides="1" tooltips="1" connect="1" arrows="1" fold="1" page="1" pageScale="1" pageWidth="1169" pageHeight="827" math="0" shadow="0">
      <root>
        <mxCell id="0" />
        <mxCell id="1" parent="0" />
        <mxCell id="LE1P0ZQWoaHicoNtDAZf-1" value="InÃ­cio" style="swimlane;childLayout=stackLayout;resizeParent=1;resizeParentMax=0;startSize=20;horizontal=0;horizontalStack=1;rounded=0;sketch=0;" vertex="1" parent="1">
          <mxGeometry x="-90" y="80" width="610" height="480" as="geometry" />
        </mxCell>
        <mxCell id="LE1P0ZQWoaHicoNtDAZf-23" value="SplashScreen" style="swimlane;startSize=20;rounded=0;sketch=0;" vertex="1" parent="LE1P0ZQWoaHicoNtDAZf-1">
          <mxGeometry x="20" width="170" height="480" as="geometry" />
        </mxCell>
        <mxCell id="LE1P0ZQWoaHicoNtDAZf-2" value="Tela inicial" style="swimlane;startSize=20;rounded=0;sketch=0;" vertex="1" parent="LE1P0ZQWoaHicoNtDAZf-1">
          <mxGeometry x="190" width="170" height="480" as="geometry" />
        </mxCell>
        <mxCell id="LE1P0ZQWoaHicoNtDAZf-3" value="Lane 2" style="swimlane;startSize=20;rounded=0;sketch=0;" vertex="1" parent="LE1P0ZQWoaHicoNtDAZf-1">
          <mxGeometry x="360" width="130" height="480" as="geometry" />
        </mxCell>
        <mxCell id="LE1P0ZQWoaHicoNtDAZf-4" value="Lane 3" style="swimlane;startSize=20;rounded=0;sketch=0;" vertex="1" parent="LE1P0ZQWoaHicoNtDAZf-1">
          <mxGeometry x="490" width="120" height="480" as="geometry" />
        </mxCell>
        <mxCell id="LE1P0ZQWoaHicoNtDAZf-14" value="Lane 1" style="swimlane;startSize=20;rounded=0;sketch=0;" vertex="1" parent="1">
          <mxGeometry x="520" y="80" width="170" height="480" as="geometry" />
        </mxCell>
        <mxCell id="LE1P0ZQWoaHicoNtDAZf-15" value="Lane 2" style="swimlane;startSize=20;rounded=0;sketch=0;" vertex="1" parent="1">
          <mxGeometry x="690" y="80" width="130" height="480" as="geometry" />
        </mxCell>
        <mxCell id="LE1P0ZQWoaHicoNtDAZf-16" value="Lane 3" style="swimlane;startSize=20;rounded=0;sketch=0;" vertex="1" parent="1">
          <mxGeometry x="820" y="80" width="120" height="480" as="geometry" />
        </mxCell>
        <mxCell id="LE1P0ZQWoaHicoNtDAZf-17" value="Lane 1" style="swimlane;startSize=20;rounded=0;sketch=0;" vertex="1" parent="1">
          <mxGeometry x="940" y="80" width="170" height="480" as="geometry" />
        </mxCell>
        <mxCell id="LE1P0ZQWoaHicoNtDAZf-18" value="Lane 2" style="swimlane;startSize=20;rounded=0;sketch=0;" vertex="1" parent="1">
          <mxGeometry x="1110" y="80" width="130" height="480" as="geometry" />
        </mxCell>
        <mxCell id="LE1P0ZQWoaHicoNtDAZf-19" value="Lane 3" style="swimlane;startSize=20;rounded=0;sketch=0;" vertex="1" parent="1">
          <mxGeometry x="1240" y="80" width="120" height="480" as="geometry" />
        </mxCell>
        <mxCell id="LE1P0ZQWoaHicoNtDAZf-20" value="Lane 1" style="swimlane;startSize=20;rounded=0;sketch=0;" vertex="1" parent="1">
          <mxGeometry x="1360" y="80" width="170" height="480" as="geometry" />
        </mxCell>
        <mxCell id="LE1P0ZQWoaHicoNtDAZf-21" value="Lane 2" style="swimlane;startSize=20;rounded=0;sketch=0;" vertex="1" parent="1">
          <mxGeometry x="1530" y="80" width="130" height="480" as="geometry" />
        </mxCell>
        <mxCell id="LE1P0ZQWoaHicoNtDAZf-22" value="Lane 3" style="swimlane;startSize=20;rounded=0;sketch=0;" vertex="1" parent="1">
          <mxGeometry x="1660" y="80" width="120" height="480" as="geometry" />
        </mxCell>
      </root>
    </mxGraphModel>
  </diagram>
</mxfile>
